<?xml version="1.0" encoding="iso-8859-1"?>
<!-- Uploaded to: SVG Repo, www.svgrepo.com, Generator: SVG Repo Mixer Tools -->
<svg height="800px" width="800px" version="1.1" id="Layer_1" xmlns="http://www.w3.org/2000/svg" xmlns:xlink="http://www.w3.org/1999/xlink" 
	 viewBox="0 0 281.959 281.959" xml:space="preserve">
<g>
	<g>
		<g>
			<g id="XMLID_27_">
				<g>
					<g>
						<path style="fill:#D6AA83;" d="M232.712,161.326v10.125c0,10.157-1.89,19.865-5.191,28.901l-2.563-2.563
							c0.128-0.897,0.256-1.794,0.256-2.723v-33.739L232.712,161.326L232.712,161.326z"/>
					</g>
					<g>
						<path style="fill:#D6AA83;" d="M98.397,161.326l-41.653,41.653c-3.941-9.772-6.152-20.378-6.152-31.528v-10.125H98.397z"/>
					</g>
					<g>
						<path style="fill:#D6AA83;" d="M163.152,182.408l46.683,46.683c-15.412,16.469-37.263,26.818-61.55,26.818H135.02
							c-23.358,0-44.537-9.548-59.82-24.928l50.112-50.144c3.076,7.369,10.573,12.624,19.321,12.624
							C152.739,193.462,159.691,188.945,163.152,182.408z"/>
					</g>
					<g>
						<path style="fill:#D6AA83;" d="M87.119,106.376H50.785c0.513-10.413,2.98-20.314,6.921-29.413L87.119,106.376z"/>
					</g>
					<g>
						<path style="fill:#D6AA83;" d="M232.52,106.376h-32.746l26.85-26.882C229.957,87.888,232.072,96.923,232.52,106.376z"/>
					</g>
					<g>
						<path style="fill:#2D213F;" d="M281.959,133.835c0,15.155-12.912,27.491-28.773,27.491h-4.037v10.125
							c0,14.803-3.236,28.869-9.003,41.557l26.626,26.594c6.408,6.408,6.408,16.821,0,23.23c-3.204,3.204-7.433,4.806-11.631,4.806
							c-4.197,0-8.395-1.602-11.599-4.806l-22.076-22.076c-18.391,19.417-44.377,31.592-73.181,31.592H135.02
							c-27.876,0-53.156-11.407-71.451-29.766l-20.218,20.25c-3.204,3.204-7.401,4.806-11.599,4.806
							c-4.229,0-8.427-1.602-11.631-4.806c-6.408-6.408-6.408-16.821,0-23.23l24.159-24.159
							c-6.472-13.297-10.093-28.228-10.093-43.992v-10.125h-5.383C12.912,161.326,0,148.99,0,133.835
							c0-15.123,12.912-27.459,28.805-27.459h5.479c0.609-15.027,4.518-29.221,10.99-41.845L20.122,39.346
							c-6.408-6.408-6.408-16.789,0-23.23c6.408-6.408,16.821-6.408,23.23,0l21.724,21.756c18.167-17.494,42.807-28.26,69.945-28.26
							h13.265c28.036,0,53.444,11.503,71.707,30.054l23.55-23.55c6.408-6.408,16.821-6.408,23.23,0c6.408,6.44,6.408,16.821,0,23.23
							l-27.555,27.587c5.767,12.015,9.26,25.344,9.837,39.442h4.133C269.047,106.376,281.959,118.711,281.959,133.835z
							 M265.554,133.835c0-6.088-5.575-11.022-12.368-11.022h-69.849l-16.661,16.661l5.415,5.415h20.186
							c4.518,0,8.202,3.685,8.202,8.202v20.218l8.331,8.331v-28.548c0-4.518,3.685-8.202,8.202-8.202h36.174
							C259.979,144.889,265.554,139.954,265.554,133.835z M232.712,171.45v-10.125h-7.498v33.739c0,0.929-0.128,1.826-0.256,2.723
							l2.563,2.563C230.822,191.316,232.712,181.607,232.712,171.45z M199.774,106.376h32.746
							c-0.449-9.452-2.563-18.488-5.896-26.882L199.774,106.376z M209.835,229.092l-46.683-46.683
							c-3.46,6.536-10.413,11.054-18.52,11.054c-8.747,0-16.245-5.255-19.321-12.624L75.2,230.982
							c15.283,15.38,36.462,24.928,59.82,24.928h13.265C172.572,255.91,194.424,245.561,209.835,229.092z M153.315,106.376
							l55.014-55.046c-15.283-15.572-36.527-25.312-60.044-25.312H135.02c-22.621,0-43.159,8.971-58.282,23.486l56.84,56.872
							H153.315z M149.054,173.405v-5.062l-5.607-5.639l-3.236,3.236v7.465c0,1.954,2.019,3.621,4.422,3.621
							S149.054,175.359,149.054,173.405z M114.802,144.889l5.415-5.415l-16.661-16.661H28.805c-6.825,0-12.368,4.934-12.368,11.022
							c0,6.12,5.543,11.054,12.368,11.054L114.802,144.889L114.802,144.889z M56.744,202.979l41.653-41.653H50.592v10.125
							C50.592,182.601,52.803,193.206,56.744,202.979z M50.785,106.376h36.334L57.706,76.962
							C53.764,86.062,51.297,95.962,50.785,106.376z"/>
					</g>
					<g>
						<path style="fill:#F4CE6E;" d="M253.187,122.812c6.793,0,12.368,4.934,12.368,11.022c0,6.12-5.575,11.054-12.368,11.054
							h-36.174c-4.518,0-8.202,3.685-8.202,8.202v28.548l-8.331-8.331v-20.218c0-4.518-3.685-8.202-8.202-8.202h-20.186
							l-5.415-5.415l16.661-16.661L253.187,122.812L253.187,122.812z"/>
					</g>
					<g>
						<path style="fill:#D6AA83;" d="M208.329,51.329l-55.014,55.046h-19.737l-56.84-56.872
							c15.123-14.514,35.661-23.486,58.282-23.486h13.265C171.803,26.017,193.046,35.758,208.329,51.329z M193.494,58.186
							c0-4.742-3.813-8.555-8.523-8.555c-4.742,0-8.555,3.813-8.555,8.555c0,4.71,3.813,8.523,8.555,8.523
							C189.682,66.709,193.494,62.896,193.494,58.186z M157.961,62.992c0-4.742-3.845-8.555-8.555-8.555s-8.555,3.813-8.555,8.555
							c0,4.71,3.845,8.523,8.555,8.523S157.961,67.702,157.961,62.992z"/>
					</g>
					<g>
						<path style="fill:#2D213F;" d="M184.972,49.631c4.71,0,8.523,3.813,8.523,8.555c0,4.71-3.813,8.523-8.523,8.523
							c-4.742,0-8.555-3.813-8.555-8.523C176.417,53.444,180.23,49.631,184.972,49.631z"/>
					</g>
					<g>
						<path style="fill:#2D213F;" d="M149.406,54.437c4.71,0,8.555,3.813,8.555,8.555c0,4.71-3.845,8.523-8.555,8.523
							c-4.71,0-8.555-3.813-8.555-8.523C140.851,58.25,144.696,54.437,149.406,54.437z"/>
					</g>
					<g>
						<path style="fill:#F4CE6E;" d="M149.054,168.342v5.062c0,1.954-2.019,3.621-4.422,3.621s-4.422-1.666-4.422-3.621v-7.466
							l3.236-3.236L149.054,168.342z"/>
					</g>
					<g>
						<path style="fill:#F4CE6E;" d="M120.217,139.474l-5.415,5.415H28.805c-6.825,0-12.368-4.934-12.368-11.054
							c0-6.088,5.543-11.022,12.368-11.022h74.751L120.217,139.474z"/>
					</g>
				</g>
			</g>
		</g>
		<path style="fill:#B78B6C;" d="M202.613,235.933c-54.649,6.693-88.977-5.117-110.486-21.887L75.2,230.982
			c15.283,15.38,36.462,24.928,59.82,24.928h13.265C168.999,255.91,187.926,248.364,202.613,235.933z"/>
		<path style="fill:#B78B6C;" d="M70.134,189.589c-6.671-10.708-10.179-21.009-11.999-28.263h-7.542v10.125
			c0,11.15,2.211,21.756,6.152,31.528L70.134,189.589z"/>
	</g>
</g>
</svg>